<svg xmlns="http://www.w3.org/2000/svg" height="24" viewBox="0 96 960 960" width="24" fill="#F04B38"><path d="M479.772 810Q509 810 529 790.228t20-49Q549 712 529.228 691.5t-49-20.5Q451 671 431 691.5t-20 49.728q0 29.228 19.772 49t49 19.772ZM417 618h126V355H417v263Zm63 392q-91 0-169.987-34.084-78.988-34.083-137.417-92.512T80.084 745.987Q46 667 46 576t34.084-169.987q34.083-78.988 92.512-137.417t137.417-92.512Q389 142 480 142t169.987 34.084q78.988 34.083 137.417 92.512t92.512 137.417Q914 485 914 576t-34.084 169.987q-34.083 78.988-92.512 137.417t-137.417 92.512Q571 1010 480 1010Z"/></svg>